<svg width="24" height="24" viewBox="0 0 24 24" fill="none" xmlns="http://www.w3.org/2000/svg">
<path d="M10.7344 5.07599C13.0638 4.7984 15.42 5.29081 17.4432 6.47804C19.4665 7.66527 21.0456 9.48207 21.9394 11.651C22.0227 11.8755 22.0227 12.1225 21.9394 12.347C21.5719 13.238 21.0862 14.0755 20.4954 14.837" stroke="black" stroke-width="2" stroke-linecap="round" stroke-linejoin="round"/>
<path d="M14.0841 14.158C13.5183 14.7045 12.7605 15.0069 11.9739 15C11.1873 14.9932 10.4349 14.6777 9.87868 14.1215C9.32245 13.5652 9.00695 12.8128 9.00011 12.0262C8.99328 11.2396 9.29566 10.4818 9.84214 9.91602" stroke="black" stroke-width="2" stroke-linecap="round" stroke-linejoin="round"/>
<path d="M17.4795 17.499C16.153 18.2848 14.673 18.7761 13.1399 18.9394C11.6068 19.1028 10.0565 18.9345 8.59414 18.4459C7.13182 17.9573 5.7917 17.1599 4.66472 16.1078C3.53773 15.0556 2.65026 13.7734 2.06251 12.348C1.97916 12.1235 1.97916 11.8765 2.06251 11.652C2.94914 9.50189 4.50918 7.69728 6.50851 6.50903" stroke="black" stroke-width="2" stroke-linecap="round" stroke-linejoin="round"/>
<path d="M2 2L22 22" stroke="black" stroke-width="2" stroke-linecap="round" stroke-linejoin="round"/>
</svg>
