<svg width="26" height="26" viewBox="0 0 26 26" fill="none" xmlns="http://www.w3.org/2000/svg">
<path d="M2.16663 17.3327V4.33268C2.16663 3.75805 2.3949 3.20695 2.80123 2.80062C3.20756 2.39429 3.75866 2.16602 4.33329 2.16602H16.25" stroke="#CEA21D" stroke-width="2" stroke-linecap="round" stroke-linejoin="round"/>
<path d="M23.8333 19.5H11.9167C11.342 19.5 10.7909 19.7283 10.3846 20.1346C9.97827 20.5409 9.75 21.092 9.75 21.6667M9.75 21.6667C9.75 22.2413 9.97827 22.7924 10.3846 23.1987C10.7909 23.6051 11.342 23.8333 11.9167 23.8333H23.2917C23.4353 23.8333 23.5731 23.7763 23.6747 23.6747C23.7763 23.5731 23.8333 23.4353 23.8333 23.2917V7.04167C23.8333 6.89801 23.7763 6.76023 23.6747 6.65865C23.5731 6.55707 23.4353 6.5 23.2917 6.5H11.9167C11.342 6.5 10.7909 6.72827 10.3846 7.1346C9.97827 7.54093 9.75 8.09203 9.75 8.66667V21.6667Z" stroke="#CEA21D" stroke-width="2" stroke-linecap="round" stroke-linejoin="round"/>
<path d="M5.41663 15.166H4.33329C3.75866 15.166 3.20756 15.3943 2.80123 15.8006C2.3949 16.2069 2.16663 16.758 2.16663 17.3327C2.16663 17.9073 2.3949 18.4584 2.80123 18.8647C3.20756 19.2711 3.75866 19.4993 4.33329 19.4993H5.41663" stroke="#CEA21D" stroke-width="2" stroke-linecap="round" stroke-linejoin="round"/>
</svg>
