<svg width="26" height="26" viewBox="0 0 26 26" fill="none" xmlns="http://www.w3.org/2000/svg">
<path d="M19.5 5.41602C20.0747 5.41602 20.6258 5.64429 21.0321 6.05062C21.4384 6.45695 21.6667 7.00805 21.6667 7.58268V16.8192C21.6666 17.1566 21.7452 17.4893 21.8964 17.7909L23.0534 20.0952C23.1369 20.2609 23.1764 20.4453 23.1682 20.6307C23.16 20.8161 23.1043 20.9963 23.0064 21.154C22.9085 21.3117 22.7718 21.4416 22.6093 21.5313C22.4468 21.6209 22.264 21.6673 22.0784 21.666H3.92171C3.73612 21.6673 3.55332 21.6209 3.39082 21.5313C3.22832 21.4416 3.09157 21.3117 2.9937 21.154C2.89583 20.9963 2.8401 20.8161 2.83188 20.6307C2.82365 20.4453 2.86319 20.2609 2.94671 20.0952L4.10371 17.7909C4.25488 17.4893 4.33352 17.1566 4.33338 16.8192V7.58268C4.33338 7.00805 4.56165 6.45695 4.96798 6.05062C5.37431 5.64429 5.92541 5.41602 6.50004 5.41602H19.5Z" stroke="#CEA21D" stroke-width="2" stroke-linecap="round" stroke-linejoin="round"/>
<path d="M21.7251 17.3184H4.27478" stroke="#CEA21D" stroke-width="2" stroke-linecap="round" stroke-linejoin="round"/>
</svg>
