<svg width="20" height="20" viewBox="0 0 20 20" fill="none" xmlns="http://www.w3.org/2000/svg">
<g clip-path="url(#clip0_111_4331)">
<path d="M17.6462 5.67664C18.0868 5.23616 18.3344 4.63869 18.3345 4.01568C18.3346 3.39267 18.0871 2.79515 17.6467 2.35456C17.2062 1.91396 16.6087 1.6664 15.9857 1.66632C15.3627 1.66624 14.7652 1.91366 14.3246 2.35414L3.20291 13.4783C3.00943 13.6712 2.86634 13.9087 2.78625 14.17L1.68541 17.7966C1.66388 17.8687 1.66225 17.9453 1.68071 18.0182C1.69916 18.0911 1.73701 18.1577 1.79024 18.2108C1.84347 18.264 1.9101 18.3017 1.98305 18.32C2.05599 18.3384 2.13255 18.3366 2.20458 18.315L5.83208 17.215C6.09306 17.1356 6.33056 16.9934 6.52375 16.8008L17.6462 5.67664Z" stroke="#6C757D" stroke-width="1.66667" stroke-linecap="round" stroke-linejoin="round"/>
<path d="M12.5 4.16669L15.8333 7.50002" stroke="#6C757D" stroke-width="1.66667" stroke-linecap="round" stroke-linejoin="round"/>
</g>
<defs>
<clipPath id="clip0_111_4331">
<rect width="20" height="20" fill="white"/>
</clipPath>
</defs>
</svg>
