<svg width="20" height="20" viewBox="0 0 20 20" fill="none" xmlns="http://www.w3.org/2000/svg">
<path d="M11.666 1.66666V4.99999C11.666 5.44202 11.8416 5.86594 12.1542 6.1785C12.4667 6.49106 12.8907 6.66666 13.3327 6.66666H16.666" stroke="#2E2E2E" stroke-width="2" stroke-linecap="round" stroke-linejoin="round"/>
<path d="M12.5 15C12.5 14.337 12.2366 13.7011 11.7678 13.2322C11.2989 12.7634 10.663 12.5 10 12.5C9.33696 12.5 8.70107 12.7634 8.23223 13.2322C7.76339 13.7011 7.5 14.337 7.5 15" stroke="#2E2E2E" stroke-width="2" stroke-linecap="round" stroke-linejoin="round"/>
<path d="M12.5007 1.66666H5.00065C4.55862 1.66666 4.1347 1.84225 3.82214 2.15481C3.50958 2.46737 3.33398 2.8913 3.33398 3.33332V16.6667C3.33398 17.1087 3.50958 17.5326 3.82214 17.8452C4.1347 18.1577 4.55862 18.3333 5.00065 18.3333H15.0007C15.4427 18.3333 15.8666 18.1577 16.1792 17.8452C16.4917 17.5326 16.6673 17.1087 16.6673 16.6667V5.83332L12.5007 1.66666Z" stroke="#2E2E2E" stroke-width="2" stroke-linecap="round" stroke-linejoin="round"/>
<path d="M10.0007 12.5C10.9211 12.5 11.6673 11.7538 11.6673 10.8333C11.6673 9.91285 10.9211 9.16666 10.0007 9.16666C9.08018 9.16666 8.33398 9.91285 8.33398 10.8333C8.33398 11.7538 9.08018 12.5 10.0007 12.5Z" stroke="#2E2E2E" stroke-width="2" stroke-linecap="round" stroke-linejoin="round"/>
</svg>
