<svg width="40" height="40" viewBox="0 0 40 40" fill="none" xmlns="http://www.w3.org/2000/svg">
<path d="M24.9999 36.6676C24.5579 36.6676 24.134 36.492 23.8214 36.1794C23.5088 35.8669 23.3333 35.4429 23.3333 35.0009V28.3342C23.3332 28.0599 23.4009 27.7898 23.5303 27.5479C23.6596 27.306 23.8467 27.0998 24.0749 26.9476L29.0749 23.6142C29.3488 23.4315 29.6707 23.334 29.9999 23.334C30.3292 23.334 30.651 23.4315 30.9249 23.6142L35.9249 26.9476C36.1531 27.0998 36.3402 27.306 36.4696 27.5479C36.599 27.7898 36.6666 28.0599 36.6666 28.3342V35.0009C36.6666 35.4429 36.491 35.8669 36.1784 36.1794C35.8659 36.492 35.4419 36.6676 34.9999 36.6676H24.9999Z" stroke="#5046E5" stroke-width="2" stroke-linecap="round" stroke-linejoin="round"/>
<path d="M29.9999 16.6673C29.9999 13.1311 28.5952 9.73971 26.0947 7.23923C23.5942 4.73874 20.2028 3.33398 16.6666 3.33398C13.1304 3.33398 9.73898 4.73874 7.23849 7.23923C4.73801 9.73971 3.33325 13.1311 3.33325 16.6673C3.33325 24.989 12.5649 33.6557 15.6649 36.3323C15.9539 36.549 16.3054 36.666 16.6666 36.6657" stroke="#5046E5" stroke-width="2" stroke-linecap="round" stroke-linejoin="round"/>
<path d="M30 36.666V31.666" stroke="#5046E5" stroke-width="2" stroke-linecap="round" stroke-linejoin="round"/>
<path d="M16.6667 21.666C19.4282 21.666 21.6667 19.4274 21.6667 16.666C21.6667 13.9046 19.4282 11.666 16.6667 11.666C13.9053 11.666 11.6667 13.9046 11.6667 16.666C11.6667 19.4274 13.9053 21.666 16.6667 21.666Z" stroke="#5046E5" stroke-width="2" stroke-linecap="round" stroke-linejoin="round"/>
</svg>
