<svg width="40" height="40" viewBox="0 0 40 40" fill="none" xmlns="http://www.w3.org/2000/svg">
<path d="M15 5H6.66667C5.74619 5 5 5.74619 5 6.66667V18.3333C5 19.2538 5.74619 20 6.66667 20H15C15.9205 20 16.6667 19.2538 16.6667 18.3333V6.66667C16.6667 5.74619 15.9205 5 15 5Z" stroke="#E5BE46" stroke-width="2" stroke-linecap="round" stroke-linejoin="round"/>
<path d="M33.3333 5H24.9999C24.0794 5 23.3333 5.74619 23.3333 6.66667V11.6667C23.3333 12.5871 24.0794 13.3333 24.9999 13.3333H33.3333C34.2537 13.3333 34.9999 12.5871 34.9999 11.6667V6.66667C34.9999 5.74619 34.2537 5 33.3333 5Z" stroke="#E5BE46" stroke-width="2" stroke-linecap="round" stroke-linejoin="round"/>
<path d="M33.3333 20H24.9999C24.0794 20 23.3333 20.7462 23.3333 21.6667V33.3333C23.3333 34.2538 24.0794 35 24.9999 35H33.3333C34.2537 35 34.9999 34.2538 34.9999 33.3333V21.6667C34.9999 20.7462 34.2537 20 33.3333 20Z" stroke="#E5BE46" stroke-width="2" stroke-linecap="round" stroke-linejoin="round"/>
<path d="M15 26.666H6.66667C5.74619 26.666 5 27.4122 5 28.3327V33.3327C5 34.2532 5.74619 34.9993 6.66667 34.9993H15C15.9205 34.9993 16.6667 34.2532 16.6667 33.3327V28.3327C16.6667 27.4122 15.9205 26.666 15 26.666Z" stroke="#E5BE46" stroke-width="2" stroke-linecap="round" stroke-linejoin="round"/>
</svg>
