<svg width="40" height="40" viewBox="0 0 40 40" fill="none" xmlns="http://www.w3.org/2000/svg">
<path d="M25.0001 3.33398H10.0001C9.11603 3.33398 8.26818 3.68517 7.64306 4.31029C7.01794 4.93542 6.66675 5.78326 6.66675 6.66732V33.334C6.66675 34.218 7.01794 35.0659 7.64306 35.691C8.26818 36.3161 9.11603 36.6673 10.0001 36.6673H30.0001C30.8841 36.6673 31.732 36.3161 32.3571 35.691C32.9822 35.0659 33.3334 34.218 33.3334 33.334V11.6673L25.0001 3.33398Z" stroke="#8743BE" stroke-width="2.91667" stroke-linecap="round" stroke-linejoin="round"/>
<path d="M23.3333 3.33398V10.0007C23.3333 10.8847 23.6844 11.7326 24.3096 12.3577C24.9347 12.9828 25.7825 13.334 26.6666 13.334H33.3333" stroke="#8743BE" stroke-width="2.91667" stroke-linecap="round" stroke-linejoin="round"/>
<path d="M13.3333 21.666H16.6666" stroke="#8743BE" stroke-width="2.91667" stroke-linecap="round" stroke-linejoin="round"/>
<path d="M23.3333 21.666H26.6666" stroke="#8743BE" stroke-width="2.91667" stroke-linecap="round" stroke-linejoin="round"/>
<path d="M13.3333 28.334H16.6666" stroke="#8743BE" stroke-width="2.91667" stroke-linecap="round" stroke-linejoin="round"/>
<path d="M23.3333 28.334H26.6666" stroke="#8743BE" stroke-width="2.91667" stroke-linecap="round" stroke-linejoin="round"/>
</svg>
