<svg width="30" height="30" viewBox="0 0 30 30" fill="none" xmlns="http://www.w3.org/2000/svg">
<path d="M2.5 2.5L27.5 27.5" stroke="#8743BE" stroke-width="2.91667" stroke-linecap="round" stroke-linejoin="round"/>
<path d="M6.25 6.25C5.91848 6.25 5.60054 6.3817 5.36612 6.61612C5.1317 6.85054 5 7.16848 5 7.5V16.25C5 22.5 9.375 25.625 14.5875 27.425C14.8569 27.5254 15.1527 27.5298 15.425 27.4375C18.3625 26.4125 21.025 24.975 22.8 22.8" stroke="#8743BE" stroke-width="2.91667" stroke-linecap="round" stroke-linejoin="round"/>
<path d="M11.6362 4.56556C12.4943 4.0732 13.3027 3.49885 14.05 2.85056C14.3148 2.62431 14.6517 2.5 15 2.5C15.3483 2.5 15.6852 2.62431 15.95 2.85056C18.1375 4.76306 21.25 6.25056 23.75 6.25056C24.0815 6.25056 24.3994 6.38226 24.6339 6.61668C24.8683 6.8511 25 7.16904 25 7.50056V16.2506C25.0008 16.7788 24.9674 17.3066 24.9 17.8306" stroke="#8743BE" stroke-width="2.91667" stroke-linecap="round" stroke-linejoin="round"/>
</svg>
