<svg width="26" height="26" viewBox="0 0 26 26" fill="none" xmlns="http://www.w3.org/2000/svg">
<path d="M13 23.8327C18.983 23.8327 23.8333 18.9824 23.8333 12.9993C23.8333 7.01626 18.983 2.16602 13 2.16602C7.01687 2.16602 2.16663 7.01626 2.16663 12.9993C2.16663 18.9824 7.01687 23.8327 13 23.8327Z" stroke="white" stroke-width="2" stroke-linecap="round" stroke-linejoin="round"/>
<path d="M16.0658 16.0652C15.4596 16.6707 14.6874 17.083 13.847 17.2498C13.0065 17.4166 12.1355 17.3305 11.344 17.0024C10.5524 16.6742 9.87595 16.1188 9.40001 15.4063C8.92407 14.6938 8.67004 13.8562 8.67004 12.9994C8.67004 12.1425 8.92407 11.3049 9.40001 10.5924C9.87595 9.87987 10.5524 9.32446 11.344 8.99633C12.1355 8.66821 13.0065 8.58212 13.847 8.74893C14.6874 8.91574 15.4596 9.32797 16.0658 9.93352" stroke="white" stroke-width="2" stroke-linecap="round" stroke-linejoin="round"/>
</svg>
