<svg width="40" height="40" viewBox="0 0 40 40" fill="none" xmlns="http://www.w3.org/2000/svg">
<path d="M20 33.334H35" stroke="#8743BE" stroke-width="2.91667" stroke-linecap="round" stroke-linejoin="round"/>
<path d="M27.2934 6.03622C27.9569 5.37274 28.8567 5 29.795 5C30.7334 5 31.6332 5.37274 32.2967 6.03622C32.9602 6.69971 33.3329 7.59958 33.3329 8.53789C33.3329 9.4762 32.9602 10.3761 32.2967 11.0396L12.28 31.0579C11.8835 31.4544 11.3934 31.7444 10.855 31.9012L6.06838 33.2979C5.92496 33.3397 5.77294 33.3422 5.62822 33.3052C5.48351 33.2681 5.35142 33.1928 5.24579 33.0871C5.14015 32.9815 5.06486 32.8494 5.02778 32.7047C4.99071 32.56 4.99321 32.408 5.03504 32.2646L6.43171 27.4779C6.58874 26.9401 6.87879 26.4506 7.27504 26.0546L27.2934 6.03622Z" stroke="#8743BE" stroke-width="2.91667" stroke-linecap="round" stroke-linejoin="round"/>
</svg>
