<svg width="28" height="30" viewBox="0 0 28 30" fill="none" xmlns="http://www.w3.org/2000/svg">
<path d="M0.666748 10H4.00008V0H7.33341L13.0334 10H20.6667V0H24.0001V10H27.3334V13.3333H24.0001V16.6667H27.3334V20H24.0001V30H20.6667L14.9501 20H7.33341V30H4.00008V20H0.666748V16.6667H4.00008V13.3333H0.666748V10ZM7.33341 10H9.21675L7.33341 6.71667V10ZM7.33341 13.3333V16.6667H13.0334L11.1334 13.3333H7.33341ZM20.6667 23.3333V20H18.7501L20.6667 23.3333ZM14.9334 13.3333L16.8501 16.6667H20.6667V13.3333H14.9334Z" fill="white"/>
</svg>
