<svg width="40" height="40" viewBox="0 0 40 40" fill="none" xmlns="http://www.w3.org/2000/svg">
<path d="M30 13.334C32.7614 13.334 35 11.0954 35 8.33398C35 5.57256 32.7614 3.33398 30 3.33398C27.2386 3.33398 25 5.57256 25 8.33398C25 11.0954 27.2386 13.334 30 13.334Z" stroke="#8743BE" stroke-width="2.91667" stroke-linecap="round" stroke-linejoin="round"/>
<path d="M10 25C12.7614 25 15 22.7614 15 20C15 17.2386 12.7614 15 10 15C7.23858 15 5 17.2386 5 20C5 22.7614 7.23858 25 10 25Z" stroke="#8743BE" stroke-width="2.91667" stroke-linecap="round" stroke-linejoin="round"/>
<path d="M30 36.666C32.7614 36.666 35 34.4274 35 31.666C35 28.9046 32.7614 26.666 30 26.666C27.2386 26.666 25 28.9046 25 31.666C25 34.4274 27.2386 36.666 30 36.666Z" stroke="#8743BE" stroke-width="2.91667" stroke-linecap="round" stroke-linejoin="round"/>
<path d="M14.3167 22.5176L25.7 29.1509" stroke="#8743BE" stroke-width="2.91667" stroke-linecap="round" stroke-linejoin="round"/>
<path d="M25.6833 10.8496L14.3167 17.4829" stroke="#8743BE" stroke-width="2.91667" stroke-linecap="round" stroke-linejoin="round"/>
</svg>
