<svg width="20" height="20" viewBox="0 0 20 20" fill="none" xmlns="http://www.w3.org/2000/svg">
<g clip-path="url(#clip0_111_3100)">
<path d="M11.1673 1.66666H5.00065C4.55862 1.66666 4.1347 1.84225 3.82214 2.15481C3.50958 2.46737 3.33398 2.8913 3.33398 3.33332V16.6667C3.33398 17.1087 3.50958 17.5326 3.82214 17.8452C4.1347 18.1577 4.55862 18.3333 5.00065 18.3333H15.0007C15.4427 18.3333 15.8666 18.1577 16.1792 17.8452C16.4917 17.5326 16.6673 17.1087 16.6673 16.6667V10.5" stroke="#5046E5" stroke-width="2" stroke-linecap="round" stroke-linejoin="round"/>
<path d="M1.66602 5H4.99935" stroke="#5046E5" stroke-width="2" stroke-linecap="round" stroke-linejoin="round"/>
<path d="M1.66602 8.33334H4.99935" stroke="#5046E5" stroke-width="2" stroke-linecap="round" stroke-linejoin="round"/>
<path d="M1.66602 11.6667H4.99935" stroke="#5046E5" stroke-width="2" stroke-linecap="round" stroke-linejoin="round"/>
<path d="M1.66602 15H4.99935" stroke="#5046E5" stroke-width="2" stroke-linecap="round" stroke-linejoin="round"/>
<path d="M17.8142 4.68833C18.1461 4.35636 18.3326 3.90612 18.3326 3.43666C18.3326 2.96719 18.1461 2.51695 17.8142 2.18499C17.4822 1.85303 17.032 1.66653 16.5625 1.66653C16.093 1.66653 15.6428 1.85303 15.3108 2.18499L11.1358 6.36166C10.9377 6.55968 10.7927 6.80444 10.7142 7.07333L10.0167 9.46499C9.99575 9.5367 9.9945 9.61271 10.013 9.68507C10.0316 9.75743 10.0692 9.82347 10.122 9.87629C10.1749 9.9291 10.2409 9.96675 10.3133 9.98529C10.3856 10.0038 10.4616 10.0026 10.5333 9.98166L12.925 9.28416C13.1939 9.20564 13.4386 9.06062 13.6367 8.86249L17.8142 4.68833Z" stroke="#5046E5" stroke-width="2" stroke-linecap="round" stroke-linejoin="round"/>
</g>
<defs>
<clipPath id="clip0_111_3100">
<rect width="20" height="20" fill="white"/>
</clipPath>
</defs>
</svg>
